<?xml version="1.0" encoding="UTF-8" standalone="no"?>
<svg
   viewBox="0 0 640 400"
   data-background-color="#ffffff"
   preserveAspectRatio="xMidYMid meet"
   height="400"
   width="640"
   version="1.1"
   id="svg47"
   sodipodi:docname="315949ff623122869508aabcd20d62f0.svg"
   xmlns:inkscape="http://www.inkscape.org/namespaces/inkscape"
   xmlns:sodipodi="http://sodipodi.sourceforge.net/DTD/sodipodi-0.dtd"
   xmlns="http://www.w3.org/2000/svg"
   xmlns:svg="http://www.w3.org/2000/svg">
  <defs
     id="defs51" />
  <sodipodi:namedview
     id="namedview49"
     pagecolor="#ffffff"
     bordercolor="#666666"
     borderopacity="1.0"
     inkscape:pageshadow="2"
     inkscape:pageopacity="0.0"
     inkscape:pagecheckerboard="0" />
  <rect
     width="640"
     height="400"
     x="0"
     y="0"
     opacity="1"
     fill="#ffffff"
     data-fill-palette-color="background"
     id="background" />
  <g
     id="tight-bounds"
     transform="translate(122.24,76.4)">
    <svg
       viewBox="0 0 395.52 247.2"
       height="247.2"
       width="395.51999"
       version="1.1"
       id="svg42">
      <g
         id="g5">
        <svg
           version="1.1"
           id="svg3"
           width="100%"
           height="100%" />
      </g>
      <g
         id="g38">
        <svg
           viewBox="0 0 395.52 247.2"
           height="247.2"
           width="395.51999"
           version="1.1"
           id="svg36">
          <g
             transform="translate(75.54432,54.169781)"
             id="g32">
            <svg
               viewBox="0 0 244.43136 138.86044"
               height="138.86044"
               width="244.43137"
               version="1.1"
               id="svg30">
              <g
                 id="g28">
                <svg
                   viewBox="0 0 244.43136 138.86044"
                   height="138.86044"
                   width="244.43137"
                   version="1.1"
                   id="svg26">
                  <g
                     id="g24">
                    <svg
                       viewBox="0 0 244.43136 138.86044"
                       height="138.86044"
                       width="244.43137"
                       version="1.1"
                       id="svg22">
                      <g
                         id="g20">
                        <svg
                           viewBox="0 0 244.43136 138.86044"
                           height="138.86044"
                           width="244.43137"
                           version="1.1"
                           id="svg18">
                          <g
                             id="textblocktransform">
                            <svg
                               viewBox="0 0 244.43136 138.86044"
                               height="138.86044"
                               width="244.43137"
                               id="textblock"
                               version="1.1">
                              <g
                                 id="g14">
                                <svg
                                   viewBox="0 0 244.43136 138.86044"
                                   height="138.86044"
                                   width="244.43137"
                                   version="1.1"
                                   id="svg12">
                                <g
                                   id="g10">
                                <svg
                                   width="244.43137"
                                   viewBox="3.45 -35.349998 79.300003 45.049999"
                                   height="138.86044"
                                   data-palette-color="#6b7280"
                                   version="1.1"
                                   id="svg8">
                                <path
                                   d="M 8.35,-3.85 V 9.7 h -4.9 v -35.05 h 4.9 v 3.9 q 2.6,-4.25 7.8,-4.25 v 0 q 5,0 7.9,3.62 2.9,3.63 2.9,9.23 v 0 q 0,5.75 -2.97,9.47 Q 21,0.35 16.05,0.35 v 0 q -5.05,0 -7.7,-4.2 z m 0,-8.9 v 0 q 0,4.4 2.08,6.6 2.07,2.2 4.72,2.2 v 0 q 2.95,0 4.85,-2.33 1.9,-2.32 1.9,-6.52 v 0 q 0,-3.95 -1.85,-6.27 -1.85,-2.33 -4.7,-2.33 -2.85,0 -4.92,2.07 -2.08,2.08 -2.08,6.58 z M 52,-22.03 q 3.15,3.68 3.15,9.38 0,5.7 -3.23,9.4 -3.22,3.7 -8.87,3.7 v 0 q -5.6,0 -8.8,-3.65 -3.2,-3.65 -3.2,-9.25 v 0 q 0,-5.7 3.3,-9.48 3.3,-3.77 8.7,-3.77 v 0 q 5.8,0 8.95,3.67 z m -15.85,9.43 v 0 q 0,3.75 1.85,6.32 1.85,2.58 5.05,2.58 v 0 q 3.4,0 5.17,-2.5 Q 50,-8.7 50,-12.55 v 0 q 0,-3.95 -1.7,-6.48 -1.7,-2.52 -5.3,-2.52 v 0 q -3.25,0 -5.05,2.57 -1.8,2.58 -1.8,6.38 z m 28.15,0.15 v 0 q 0,3.8 1.87,6.15 1.88,2.35 4.73,2.35 v 0 q 2.9,0 4.9,-2.2 2,-2.2 2,-6.7 v 0 q 0,-4.35 -2.08,-6.45 -2.07,-2.1 -4.67,-2.1 v 0 q -2.95,0 -4.85,2.33 -1.9,2.32 -1.9,6.62 z m 18.45,-22.9 V 0 H 77.8 v -3.85 q -2.65,4.2 -7.75,4.2 v 0 q -5,0 -7.9,-3.78 -2.9,-3.77 -2.9,-9.12 v 0 q 0,-5.95 3.05,-9.55 3.05,-3.6 7.85,-3.6 v 0 q 4.95,0 7.65,4.2 v 0 -13.85 z"
                                   opacity="1"
                                   fill="#6b7280"
                                   class="wordmark-text-0"
                                   data-fill-palette-color="primary"
                                   id="text-0" />
                                </svg>
                                </g>
                                </svg>
                              </g>
                            </svg>
                          </g>
                        </svg>
                      </g>
                    </svg>
                  </g>
                </svg>
              </g>
            </svg>
          </g>
          <path
             d="M 144.785,48.17 V 3.671 H 384.644 V 243.529 H 144.785 V 199.03 h 12.522 v 31.977 H 372.121 V 16.193 H 157.307 V 48.17 Z"
             fill="#6b7280"
             stroke="transparent"
             data-fill-palette-color="primary"
             id="path34" />
        </svg>
      </g>
      <defs
         id="defs40" />
    </svg>
    <rect
       width="395.51999"
       height="247.2"
       fill="none"
       stroke="none"
       visibility="hidden"
       id="rect44"
       x="0"
       y="0" />
  </g>
</svg>
